<?xml version="1.0" standalone="no"?>
<!DOCTYPE svg PUBLIC "-//W3C//DTD SVG 20010904//EN"
 "http://www.w3.org/TR/2001/REC-SVG-20010904/DTD/svg10.dtd">
<svg version="1.0" xmlns="http://www.w3.org/2000/svg"
 width="480.000000pt" height="480.000000pt" viewBox="0 0 480.000000 480.000000"
 preserveAspectRatio="xMidYMid meet">
<metadata>
Created by potrace 1.11, written by Peter Selinger 2001-2013
</metadata>
<g transform="translate(0.000000,480.000000) scale(0.100000,-0.100000)"
fill="#000000" stroke="none">
<path d="M1523 4640 c-18 -4 -49 -22 -70 -40 -128 -112 -130 -114 -142 -168
-16 -78 -14 -224 5 -290 15 -49 28 -68 106 -143 l89 -87 -36 -92 c-65 -170
-78 -238 -79 -410 l-1 -155 41 -83 42 -82 -26 -13 c-45 -21 -242 -289 -374
-507 -204 -338 -263 -537 -256 -859 3 -145 5 -160 30 -213 54 -116 151 -192
290 -227 l73 -19 8 -58 c5 -45 2 -80 -12 -144 -33 -143 -61 -353 -61 -457 0
-206 63 -323 210 -392 50 -24 66 -26 186 -26 l130 0 80 39 c63 31 97 57 171
131 97 99 141 157 240 316 34 55 74 114 88 131 l26 31 25 -24 c13 -13 50 -75
81 -139 188 -389 327 -537 554 -594 75 -18 206 -21 264 -5 102 28 192 124 243
257 57 148 73 286 88 790 7 209 8 222 26 222 36 0 132 55 188 107 113 104 157
240 146 445 -11 212 -42 320 -191 663 -107 246 -135 293 -240 401 l-84 86 29
52 c61 107 75 174 74 356 -1 136 -6 186 -27 285 -13 66 -28 128 -32 137 -5 13
4 22 37 39 91 46 127 77 134 117 4 20 11 42 16 49 6 7 12 57 15 111 5 80 3
106 -11 132 -9 18 -16 41 -16 50 0 10 -7 23 -15 30 -8 7 -15 18 -15 24 0 14
-56 68 -101 99 -64 44 -195 61 -270 36 -19 -7 -53 -30 -76 -52 l-41 -40 -154
77 c-182 90 -242 106 -419 106 -151 0 -294 -23 -498 -82 -118 -34 -146 -39
-150 -27 -2 8 -24 32 -49 55 -39 36 -53 42 -121 53 -84 12 -120 13 -168 1z
m1174 -85 c74 -17 212 -80 310 -141 66 -41 183 -159 183 -184 0 -5 14 -31 30
-57 17 -26 30 -53 30 -61 0 -7 12 -39 26 -70 63 -136 103 -288 104 -392 0 -25
8 -58 17 -75 14 -24 17 -57 18 -160 0 -117 -3 -138 -28 -213 -33 -95 -81 -154
-212 -259 -120 -98 -207 -135 -345 -146 -36 -3 -100 -17 -143 -31 -61 -20 -98
-26 -170 -26 -126 0 -252 16 -322 40 -32 11 -72 20 -88 20 -86 0 -279 83 -405
173 -199 144 -262 278 -240 514 11 113 43 227 123 430 36 90 65 165 65 167 0
1 22 41 48 88 32 58 62 97 92 120 24 18 48 47 54 64 19 51 54 91 97 108 94 38
343 94 489 110 57 6 200 -4 267 -19z m823 -2988 c0 -5 -4 -5 -10 -2 -5 3 -10
14 -10 23 0 15 2 15 10 2 5 -8 10 -19 10 -23z m-2263 -104 c-2 -21 -4 -4 -4
37 0 41 2 58 4 38 2 -21 2 -55 0 -75z m2254 26 c12 -44 10 -96 -6 -109 -8 -7
-34 -15 -58 -17 -60 -7 -90 18 -92 79 l-2 46 51 6 c28 4 58 11 66 16 21 14 33
7 41 -21z m-2238 -76 c-7 -2 -19 -2 -25 0 -7 3 -2 5 12 5 14 0 19 -2 13 -5z
m781 -102 c9 -14 -5 -42 -17 -34 -6 4 -8 0 -4 -10 3 -10 2 -17 -3 -17 -13 0
-17 43 -5 57 12 15 22 16 29 4z m381 -20 c-9 -16 -25 -3 -18 15 4 10 9 12 15
6 6 -6 7 -15 3 -21z m385 7 c-1 -22 -31 -68 -45 -68 -4 0 -3 14 0 32 12 52 45
79 45 36z m-1201 -12 c15 -17 10 -84 -7 -91 -14 -5 -20 7 -23 45 -5 59 6 75
30 46z m1131 -19 c0 -14 -20 -37 -32 -37 -12 0 -10 19 5 35 15 18 27 19 27 2z
m-803 -19 c-3 -8 -6 -5 -6 6 -1 11 2 17 5 13 3 -3 4 -12 1 -19z m398 12 c3 -5
1 -10 -4 -10 -6 0 -11 5 -11 10 0 6 2 10 4 10 3 0 8 -4 11 -10z m-775 -30 c0
-5 -4 -10 -10 -10 -5 0 -10 5 -10 10 0 6 5 10 10 10 6 0 10 -4 10 -10z m-21
-19 c9 -15 7 -20 -9 -24 -23 -6 -30 0 -30 25 0 24 26 23 39 -1z m51 -66 c0 -8
-9 -15 -20 -15 -20 0 -26 11 -13 23 12 13 33 7 33 -8z"/>
<path d="M3010 3970 c-14 -4 -41 -8 -61 -9 -47 -1 -176 -89 -185 -127 -9 -36
35 -80 90 -89 22 -4 49 -12 59 -17 20 -10 57 -2 57 13 0 6 -13 15 -30 20 -16
6 -30 18 -30 26 0 26 40 83 58 83 35 0 60 -13 72 -36 14 -26 39 -31 58 -12 20
20 14 42 -20 69 -31 26 -32 27 -15 52 9 15 17 29 17 32 0 7 -40 5 -70 -5z"/>
<path d="M2312 3960 c-29 -12 -22 -26 19 -34 25 -5 30 -10 27 -28 -2 -16 -9
-22 -23 -21 -19 2 -137 -20 -178 -33 -12 -4 -17 -13 -15 -27 3 -18 14 -23 83
-34 44 -6 84 -8 88 -4 4 4 16 23 25 42 12 23 25 35 42 37 29 3 84 -28 99 -57
14 -25 -8 -39 -84 -56 -31 -7 -50 -17 -50 -26 0 -34 182 16 222 61 14 17 32
30 39 30 20 0 52 33 58 63 6 26 5 27 -34 27 -26 0 -54 9 -78 24 -25 16 -59 26
-102 31 -36 3 -76 8 -90 10 -14 2 -35 0 -48 -5z"/>
<path d="M2269 3397 c-39 -21 -44 -28 -46 -60 -3 -43 10 -47 43 -12 13 14 27
25 31 25 8 0 33 47 33 62 0 13 -14 9 -61 -15z"/>
<path d="M2570 3391 c-13 -9 -12 -13 5 -29 37 -35 130 -65 178 -58 62 9 107
40 107 72 0 25 -2 26 -42 19 -61 -9 -104 -9 -173 -1 -37 4 -66 3 -75 -3z"/>
<path d="M2340 3166 c-20 -26 10 -30 200 -32 151 -1 191 -4 217 -18 18 -9 41
-16 53 -16 19 0 90 39 90 50 0 3 -13 11 -29 17 -21 7 -51 7 -109 -1 -53 -8
-89 -8 -104 -2 -13 5 -87 11 -165 12 -111 3 -144 0 -153 -10z"/>
<path d="M2590 2974 c0 -21 43 -66 76 -80 71 -30 164 -4 184 50 5 16 8 31 5
34 -2 2 -63 5 -135 6 -90 1 -130 -2 -130 -10z"/>
<path d="M3419 1483 c-1 -5 0 -18 1 -31 1 -13 -3 -29 -9 -36 -8 -9 -7 -18 3
-31 11 -16 17 -17 29 -7 8 7 21 11 28 10 8 -2 15 7 17 20 2 14 -2 22 -11 22
-8 0 -20 14 -26 30 -9 27 -29 41 -32 23z"/>
<path d="M234 4138 c-5 -7 -7 -47 -6 -90 l3 -78 -38 0 c-53 0 -65 -11 -61 -51
3 -32 5 -34 47 -39 l44 -5 -2 -99 c-1 -55 -4 -103 -6 -107 -3 -3 -23 -9 -45
-13 -35 -5 -40 -10 -40 -32 0 -14 5 -34 10 -44 10 -18 12 -18 83 1 39 11 98
29 130 40 56 21 57 22 57 61 0 39 -1 40 -27 35 -16 -3 -36 -9 -45 -12 -16 -7
-18 1 -18 84 l0 91 40 0 c25 0 40 5 41 13 1 34 79 -244 79 -285 0 -14 -11 -18
-62 -20 l-63 -3 0 -35 0 -35 218 -3 217 -2 0 40 0 40 -60 0 c-33 0 -60 2 -60
4 0 3 13 58 29 123 16 65 33 139 36 164 7 45 6 47 -22 55 -27 7 -26 8 17 13
43 6 45 8 48 40 4 44 -8 51 -89 51 l-66 0 -20 53 c-19 51 -19 52 -57 50 -22
-2 -42 -5 -45 -8 -3 -3 2 -26 11 -50 l17 -44 -72 -3 -72 -3 -3 -32 c-3 -29 -7
-33 -33 -33 l-29 0 0 78 c0 47 -5 83 -12 90 -16 16 -65 15 -74 0z m421 -210
c-2 -13 -16 -77 -31 -143 -37 -172 -44 -189 -74 -193 -23 -2 -24 -1 -7 11 9 8
17 24 17 37 0 28 -57 255 -70 281 -13 23 -12 23 -55 5 -33 -14 -35 -14 -35 5
0 18 8 19 130 19 130 0 130 0 125 -22z"/>
<path d="M4107 4093 c-2 -4 -8 -62 -11 -128 -13 -209 -45 -325 -116 -415 -36
-46 -37 -60 -5 -90 l25 -23 25 23 c36 34 80 106 106 172 12 32 25 55 30 53 4
-3 22 -28 40 -55 18 -28 38 -50 46 -50 20 0 16 -14 -12 -40 -14 -13 -25 -30
-25 -37 0 -21 31 -63 45 -63 32 0 110 113 151 219 9 21 13 16 51 -60 54 -108
98 -162 122 -150 9 5 23 20 30 34 12 22 9 29 -32 88 -90 128 -127 249 -127
411 l0 118 -40 0 c-48 0 -48 1 -53 -165 -4 -114 -26 -243 -47 -275 -9 -13 -12
-13 -20 2 -6 9 -35 47 -65 83 -53 65 -54 68 -48 113 4 26 7 90 7 142 l1 95
-37 3 c-20 2 -38 -1 -41 -5z"/>
<path d="M227 3233 c-4 -3 -7 -44 -7 -89 l0 -83 -37 -3 c-37 -3 -38 -4 -41
-45 l-3 -42 38 -3 38 -3 0 -100 0 -100 -42 -13 c-34 -11 -43 -19 -43 -37 0
-63 17 -67 127 -30 42 14 77 24 79 22 2 -2 -7 -19 -21 -37 -32 -43 -31 -54 2
-80 l28 -22 32 39 c18 21 33 34 33 28 0 -5 10 -23 23 -39 23 -28 24 -28 54
-13 17 9 51 32 76 51 l47 36 66 -51 c64 -49 67 -49 86 -32 44 40 42 48 -27 99
-36 26 -64 50 -62 53 57 104 97 230 84 264 -5 12 -18 17 -48 17 -38 0 -41 2
-35 23 18 67 29 136 23 151 -6 15 -25 16 -179 14 l-173 -3 0 -35 c0 -33 2 -35
39 -38 l39 -3 -6 -107 c-8 -134 -25 -212 -46 -212 -9 0 -26 -3 -38 -6 -23 -6
-23 -5 -23 79 l0 86 38 3 c32 3 37 7 40 31 4 37 -13 57 -49 57 l-29 0 0 74 c0
41 -3 81 -6 90 -6 16 -64 23 -77 9z m373 -120 c-1 -10 -7 -45 -15 -78 -23 -94
-23 -95 35 -95 28 0 50 -3 50 -6 0 -20 -55 -124 -64 -121 -6 2 -29 38 -50 80
-34 65 -40 88 -44 157 l-5 80 47 0 c37 0 46 -3 46 -17z m-80 -325 l32 -51 -24
-19 c-23 -18 -107 -68 -114 -68 -3 0 4 17 15 38 10 20 27 63 37 95 10 31 19
57 20 57 1 0 17 -23 34 -52z"/>
<path d="M4194 3170 c-28 -10 -84 -23 -125 -30 -89 -15 -99 -24 -87 -68 l9
-32 54 6 c51 6 55 5 55 -14 0 -19 -7 -21 -67 -24 l-68 -3 -3 -42 -3 -43 70 0
71 0 0 -49 c0 -54 2 -53 -93 -66 l-48 -7 3 -42 c3 -38 5 -41 33 -41 17 1 47 4
68 8 l37 8 0 -55 0 -55 -47 -3 c-41 -3 -48 -6 -51 -25 -6 -42 15 -63 62 -63
62 0 106 18 117 49 l10 26 18 -23 c22 -30 50 -24 131 29 54 34 60 36 65 19 3
-10 24 -35 46 -55 33 -30 47 -36 77 -33 33 3 40 8 59 48 12 25 25 62 28 82 6
33 4 38 -24 52 -44 23 -48 21 -56 -26 -12 -72 -19 -76 -49 -31 l-27 41 36 48
c20 26 45 65 57 87 l20 40 -23 18 -24 19 43 0 43 0 -3 43 c-3 37 -6 42 -29 45
l-27 3 26 26 26 26 -59 54 c-68 62 -97 73 -124 48 -18 -16 -20 -15 -26 4 -5
17 -15 21 -46 21 l-39 0 0 -90 0 -90 -60 0 -60 0 0 34 c0 31 3 34 46 46 53 15
61 28 42 66 -16 35 -22 35 -84 14z m301 -124 l40 -35 -67 -1 -68 0 0 56 0 55
28 -19 c15 -11 45 -36 67 -56z m-174 -148 c0 -13 9 -54 19 -93 l19 -70 -27
-23 c-30 -25 -115 -72 -132 -72 -7 0 -10 21 -8 56 l3 57 55 16 c54 16 55 17
58 59 4 49 -7 52 -77 27 l-41 -14 0 39 0 40 65 0 c61 0 65 -2 66 -22z m169 15
c0 -13 -51 -93 -59 -93 -9 0 -21 48 -21 81 0 15 8 19 40 19 22 0 40 -3 40 -7z"/>
<path d="M518 2304 c-16 -8 -28 -17 -28 -20 0 -20 67 -129 105 -172 l47 -52
-188 0 -188 0 45 48 c39 40 83 98 113 149 8 15 -32 53 -56 53 -11 0 -33 -24
-58 -64 -39 -61 -92 -118 -154 -162 -28 -20 -29 -23 -17 -52 16 -37 33 -45 58
-27 25 20 31 18 35 -7 3 -21 9 -23 66 -26 60 -3 63 -4 56 -25 -22 -71 -106
-170 -169 -199 -31 -14 -32 -29 -2 -64 l24 -27 39 23 c98 61 167 148 193 248
l12 42 66 0 66 0 -6 -82 c-3 -46 -8 -91 -12 -101 -11 -26 -46 -37 -121 -37
-69 0 -73 -4 -54 -55 l10 -27 96 4 c90 3 97 5 119 31 31 35 43 82 50 182 4 44
8 95 11 113 5 32 6 33 23 18 25 -23 47 -20 71 12 l22 27 -39 30 c-70 55 -123
115 -153 175 -32 64 -39 68 -82 44z"/>
<path d="M4074 2228 c-21 -66 -57 -139 -96 -196 -25 -36 -29 -50 -23 -78 8
-44 31 -54 53 -23 16 23 17 17 22 -146 l5 -170 35 0 35 0 3 228 c2 203 4 228
18 223 9 -3 29 -6 45 -6 28 0 29 -2 29 -44 0 -43 -1 -45 -32 -48 l-33 -3 -3
-157 -3 -158 41 0 c33 0 40 3 40 20 0 18 7 20 55 20 47 0 55 -3 55 -18 0 -21
30 -52 49 -52 6 0 34 21 62 47 l50 46 15 -22 c9 -12 26 -34 39 -49 22 -25 24
-26 50 -12 15 8 29 20 32 27 3 6 -18 41 -45 77 l-50 65 18 59 c10 33 24 97 30
143 7 52 17 87 26 92 20 11 18 73 -2 81 -9 3 -40 6 -71 6 l-55 0 7 40 c6 36 5
40 -18 45 -48 13 -61 3 -69 -49 -10 -71 -11 -72 -56 -68 l-41 4 -3 57 -3 56
-40 0 -40 0 -3 -57 c-3 -57 -4 -58 -32 -58 -35 0 -34 -2 -15 43 8 20 15 41 15
46 0 11 -51 41 -69 41 -5 0 -17 -24 -27 -52z m422 -178 c-3 -22 -9 -59 -12
-82 -9 -56 -23 -30 -31 57 l-6 65 27 0 c27 0 28 -2 22 -40z m-156 3 c0 -10 -7
-26 -15 -36 -7 -11 -11 -25 -8 -33 3 -9 -2 -14 -17 -14 -16 0 -20 4 -16 16 3
9 6 31 6 50 0 30 3 34 25 34 17 0 25 -5 25 -17z m68 -179 c22 -75 22 -75 3
-103 -48 -67 -51 -63 -51 56 0 102 3 123 20 123 3 0 16 -34 28 -76z m-133 -44
c0 -54 0 -55 -30 -55 -30 0 -30 1 -33 58 l-3 58 33 -3 c33 -3 33 -3 33 -58z"/>
<path d="M417 1413 c-4 -3 -7 -35 -7 -70 0 -60 -1 -63 -24 -63 -18 0 -25 7
-29 28 -3 15 -16 43 -30 62 -18 28 -29 35 -52 33 -45 -3 -52 -18 -27 -62 32
-57 30 -61 -39 -61 l-60 0 3 -37 3 -38 85 -5 c84 -5 85 -5 60 -22 -14 -9 -50
-26 -80 -38 -30 -12 -59 -25 -63 -30 -11 -10 20 -70 36 -70 21 0 119 50 169
85 l48 35 0 -65 0 -65 -123 0 c-130 0 -147 -5 -147 -46 0 -35 21 -43 126 -46
l99 -3 -48 -31 c-26 -17 -76 -40 -112 -50 -53 -15 -65 -23 -65 -39 0 -40 23
-59 64 -52 60 10 171 66 211 107 l38 39 46 -39 c50 -42 145 -92 203 -108 35
-10 40 -8 58 16 12 14 19 32 18 39 -2 8 -32 24 -68 36 -36 12 -87 36 -115 52
l-50 30 110 5 110 5 3 34 c2 20 -2 37 -10 42 -7 5 -68 9 -135 9 l-123 0 0 55
c0 36 4 55 12 55 7 0 55 -21 107 -46 l95 -46 18 22 c33 41 24 56 -54 86 -40
15 -77 31 -82 36 -6 4 29 8 77 8 84 0 87 1 93 25 11 46 0 55 -66 55 -33 0 -60
2 -60 5 0 2 9 19 20 37 29 49 26 75 -10 83 -16 4 -33 4 -37 2 -5 -3 -21 -33
-38 -66 -23 -47 -35 -60 -50 -58 -17 2 -20 11 -23 70 l-3 67 -38 0 c-21 0 -41
-3 -44 -7z"/>
<path d="M4100 1326 l0 -45 -57 -3 c-55 -3 -58 -4 -61 -31 -5 -42 13 -57 70
-57 48 0 49 -1 46 -27 -3 -26 -6 -28 -63 -33 l-60 -5 0 -35 c0 -29 4 -36 22
-38 18 -3 21 -7 14 -20 -4 -9 -11 -47 -14 -83 -3 -36 -16 -96 -28 -134 l-23
-68 28 -24 c16 -13 33 -22 39 -20 6 2 18 23 26 48 8 24 16 45 17 47 1 2 12 -6
24 -18 12 -12 36 -28 54 -35 47 -20 233 -37 360 -33 l110 3 8 30 c15 55 13 55
-175 55 -96 0 -189 3 -206 6 -29 6 -31 9 -31 50 0 39 3 44 23 44 54 0 67 10
67 51 l0 39 -45 0 c-43 0 -45 1 -45 30 0 29 1 30 50 30 l50 0 0 -90 c0 -125 6
-130 143 -130 95 0 105 2 125 23 23 25 48 125 34 139 -5 5 -25 11 -45 15 -36
5 -37 5 -37 -26 0 -58 -14 -71 -75 -71 l-55 0 0 75 0 74 88 3 87 3 0 130 0
130 -135 0 c-132 0 -135 0 -138 -22 -3 -20 -9 -23 -52 -23 l-49 0 -3 43 c-3
42 -3 42 -45 45 l-43 3 0 -45z m390 -130 l0 -45 -92 -5 c-51 -3 -120 -7 -153
-9 l-60 -2 0 30 c0 29 2 30 53 33 44 3 52 6 52 23 0 18 8 19 100 19 l100 0 0
-44z m-380 -238 c-1 -78 -3 -90 -13 -73 -7 11 -12 49 -12 85 0 64 0 65 -30 71
-27 6 -26 7 13 8 l42 1 0 -92z"/>
</g>
</svg>
